<svg xmlns="http://www.w3.org/2000/svg" xmlns:xlink="http://www.w3.org/1999/xlink" width="500" zoomAndPan="magnify" viewBox="0 0 375 374.999991" height="500" preserveAspectRatio="xMidYMid meet" version="1.0"><defs><g/><clipPath id="06ec4136cf"><path d="M 6.8125 106.644531 L 368.3125 106.644531 L 368.3125 268.644531 L 6.8125 268.644531 Z M 6.8125 106.644531 " clip-rule="nonzero"/></clipPath></defs><g clip-path="url(#06ec4136cf)"><path fill="#d9d9d9" d="M 338.652344 169.285156 L 345.246094 171.683594 C 345.300781 171.703125 345.359375 171.722656 345.414062 171.738281 L 347.375 172.273438 L 341.015625 179.425781 L 321.203125 178.363281 L 322.308594 161.441406 L 338.453125 169.203125 C 338.519531 169.234375 338.582031 169.261719 338.652344 169.285156 Z M 280.492188 162.070312 L 254.324219 151.507812 L 271.117188 135.007812 L 285.8125 134.515625 L 282.765625 158.941406 Z M 286.589844 161.035156 C 286.804688 160.738281 286.945312 160.394531 286.988281 160.03125 L 289.917969 136.527344 L 312.417969 155.785156 L 286.734375 172.570312 L 283.699219 169.707031 L 283.449219 165.355469 Z M 316.175781 158.492188 L 318.109375 159.421875 L 316.886719 178.132812 L 303.15625 177.398438 L 291.765625 174.445312 Z M 317.890625 144.179688 L 316.613281 149.84375 L 315.292969 152.554688 L 291.84375 132.484375 L 308.191406 121.554688 L 319.394531 132.359375 L 319.394531 136.683594 C 319.394531 137.257812 326.269531 144.179688 326.269531 144.179688 Z M 347.898438 134.335938 L 351.335938 145.613281 L 351.550781 149.152344 L 349.039062 151.074219 L 344.097656 146.015625 C 343.738281 145.648438 343.253906 145.421875 342.742188 145.375 L 338.601562 145.011719 Z M 333.597656 144.179688 L 333.417969 144.09375 L 334.289062 123.753906 L 345.507812 130.5 Z M 329.210938 141.28125 L 323.71875 135.789062 L 323.058594 129.882812 L 314.101562 121.25 L 330.03125 122.074219 Z M 343.925781 156.414062 L 341.554688 156.074219 L 339.550781 153.992188 L 337.039062 149.214844 L 341.566406 149.613281 L 345.914062 154.058594 Z M 355.085938 122.464844 C 355.085938 122.464844 354.84375 129.082031 354.902344 129.296875 L 357.910156 140.421875 C 357.929688 140.496094 357.953125 140.566406 357.980469 140.636719 L 359.453125 144.449219 L 358.386719 146.742188 L 355.773438 147.417969 L 355.632812 145.09375 C 355.625 144.925781 355.59375 144.757812 355.542969 144.597656 L 351.015625 129.726562 L 351.734375 119.566406 Z M 339.035156 111.640625 L 343.34375 109.542969 L 350.195312 110.476562 L 348.039062 113.972656 C 347.851562 114.277344 347.753906 114.617188 347.730469 114.953125 L 347.722656 114.953125 L 346.921875 126.304688 L 335.132812 119.214844 Z M 322.605469 110.996094 L 326.011719 112.046875 C 326.21875 112.109375 326.429688 112.140625 326.644531 112.140625 L 333.902344 112.164062 L 331 117.796875 L 309.886719 116.703125 L 306.421875 108.789062 L 312.886719 109.648438 Z M 290.308594 106.65625 L 301.410156 108.125 L 305.734375 118 L 287.582031 130.128906 L 272.585938 130.632812 L 274.738281 107.835938 Z M 270.328125 108.550781 L 268.125 131.886719 L 251.65625 148.070312 L 243.59375 115.128906 L 243.746094 115.070312 Z M 247.757812 150.332031 L 217.109375 152.894531 L 223.289062 122.921875 L 239.523438 116.691406 Z M 216.53125 125.511719 C 216.574219 125.496094 216.621094 125.480469 216.664062 125.464844 L 218.496094 124.761719 L 213.003906 151.398438 L 190.679688 133.535156 Z M 176.257812 137.964844 C 176.402344 137.949219 176.542969 137.921875 176.679688 137.878906 L 185.695312 135.082031 L 208.9375 153.679688 L 167.828125 157.898438 L 174.179688 138.175781 Z M 161.472656 139.46875 L 169.484375 138.65625 L 163.636719 156.820312 L 144.296875 142.121094 Z M 144.902344 193.59375 L 130.800781 176.296875 L 162.894531 163.460938 L 164.910156 183.324219 Z M 127.207031 178.726562 L 140.972656 195.609375 L 139.742188 196.242188 C 139.679688 196.273438 139.621094 196.308594 139.5625 196.347656 L 126.492188 204.746094 L 111.207031 213.3125 L 109.621094 213.945312 L 110.636719 196.425781 Z M 160.410156 159.796875 L 128.367188 172.613281 L 117.507812 154.773438 L 138.738281 143.324219 Z M 134.335938 140.789062 L 114.6875 151.382812 L 107.183594 145.574219 L 98.878906 123.578125 L 126.9375 136.902344 Z M 83.230469 118.960938 C 83.230469 118.960938 83.226562 118.960938 83.226562 118.960938 Z M 53.066406 115.179688 L 72.117188 116.523438 L 78.226562 117.863281 C 76.773438 118.847656 74.914062 120.125 72.496094 121.785156 C 68.554688 124.484375 64.640625 127.183594 63.230469 128.15625 L 49.410156 128.15625 L 39.382812 118.128906 Z M 21.59375 157 L 15.460938 159.269531 L 8.132812 155.050781 L 6.839844 148.15625 L 9.269531 144.859375 L 10.582031 145.1875 L 12.90625 147.511719 C 13.3125 147.917969 13.863281 148.144531 14.4375 148.144531 L 16.910156 148.144531 C 17.113281 148.144531 17.3125 148.109375 17.5 148.054688 L 17.503906 148.0625 L 29.503906 144.632812 L 28.128906 151.671875 Z M 35.125 132.960938 C 34.632812 133.144531 34.222656 133.5 33.972656 133.960938 L 30.832031 139.757812 L 19.882812 142.886719 L 21.167969 137.59375 L 25.558594 127.265625 L 34.890625 119.75 L 44.601562 129.460938 Z M 78.949219 132.414062 C 78.898438 132.394531 78.847656 132.378906 78.796875 132.363281 L 68.890625 129.507812 C 74.855469 125.398438 81.917969 120.558594 84.074219 119.148438 L 93.355469 121.183594 L 100.664062 140.546875 C 100.511719 140.4375 100.355469 140.339844 100.183594 140.277344 Z M 99.703125 184.789062 C 99.792969 184.667969 99.875 184.539062 99.9375 184.402344 L 104.917969 173.902344 L 109.734375 162.671875 L 114.164062 157.597656 L 124.761719 175.011719 L 107.730469 193.203125 L 94.839844 191.136719 Z M 86.828125 201.554688 C 86.914062 201.476562 86.988281 201.390625 87.058594 201.300781 L 91.851562 195.039062 L 106.253906 197.34375 L 105.1875 215.714844 L 83.464844 224.371094 C 83.238281 224.460938 83.027344 224.589844 82.84375 224.753906 L 78.960938 228.148438 L 77.160156 210.71875 Z M 48.359375 255.074219 C 47.957031 255.480469 47.726562 256.027344 47.726562 256.601562 L 47.726562 263.019531 L 44.382812 262.328125 L 44.382812 252.605469 L 53.070312 246.898438 L 51.300781 252.132812 Z M 63.636719 264.03125 L 56.480469 268.371094 L 53.753906 266.734375 L 52.050781 264.84375 L 52.050781 257.496094 L 54.484375 255.0625 L 64.929688 249.546875 C 64.929688 249.546875 64.183594 251.558594 64.238281 251.949219 L 65.011719 257.617188 Z M 71.550781 234.636719 C 71.308594 234.851562 71.117188 235.117188 70.988281 235.414062 L 67.640625 243.230469 L 56.96875 248.863281 L 68.394531 215.054688 L 73.054688 213.035156 L 74.980469 231.636719 Z M 132.421875 214.816406 L 110.605469 224.734375 L 87.730469 227.324219 L 112.941406 217.277344 C 113.027344 217.242188 113.117188 217.203125 113.199219 217.15625 L 128.664062 208.484375 C 128.703125 208.464844 128.738281 208.441406 128.777344 208.417969 L 141.804688 200.042969 Z M 169.183594 182.601562 L 167.125 162.316406 L 210.453125 157.867188 L 195.664062 183.851562 L 183.6875 184.09375 Z M 218.167969 183.398438 L 200.695312 183.75 L 214.125 160.15625 L 223.742188 182.847656 Z M 235.027344 181.734375 L 228.25 182.402344 L 217.566406 157.195312 L 247.847656 154.664062 L 243.484375 179.605469 Z M 250.457031 177.847656 L 248.074219 178.449219 L 252.128906 155.28125 L 279.167969 166.199219 L 279.269531 167.960938 Z M 345.074219 190.621094 C 345.074219 190.621094 337.199219 187.644531 337.039062 187.636719 L 303.929688 185.300781 L 285.8125 185.464844 L 280.175781 179.820312 L 278.5 172.792969 L 280.089844 172.246094 C 280.097656 172.253906 280.101562 172.257812 280.105469 172.265625 L 285.007812 176.882812 C 285.273438 177.132812 285.597656 177.3125 285.949219 177.402344 L 302.28125 181.636719 C 302.421875 181.671875 341.164062 183.765625 341.164062 183.765625 L 344.238281 186.066406 C 344.351562 186.152344 350.203125 188.960938 350.203125 188.960938 Z M 367.792969 184.238281 L 363.277344 187.628906 L 357.449219 187.628906 L 346.660156 182.480469 L 345.113281 181.320312 L 352.027344 173.542969 L 356.953125 174.886719 C 357.070312 174.917969 357.191406 174.9375 357.308594 174.949219 L 362.625 175.480469 L 365.550781 177.988281 L 365.550781 179.09375 C 365.550781 179.597656 365.730469 180.089844 366.050781 180.476562 L 368.160156 183.007812 Z M 367.792969 184.238281 " fill-opacity="1" fill-rule="nonzero"/></g><g fill="#ffffff" fill-opacity="1"><g transform="translate(174.794846, 212.086642)"><g><path d="M 2 0 L 8.039062 0 L 8.039062 -9.960938 L 11 -9.960938 C 17.199219 -9.960938 21.4375 -12.277344 21.4375 -16.199219 C 21.4375 -20.238281 16.71875 -22.398438 11.039062 -22.398438 L 2 -22.398438 Z M 8.039062 -10.359375 L 8.039062 -22 L 10.160156 -22 C 13.277344 -22 14.4375 -20.238281 14.4375 -16.359375 C 14.4375 -12.277344 13.277344 -10.398438 9.878906 -10.398438 Z M 8.039062 -10.359375 "/></g></g></g><g fill="#ffffff" fill-opacity="1"><g transform="translate(196.832652, 212.086642)"><g><path d="M 11.359375 0.441406 C 12.878906 0.441406 14.277344 0.160156 15.519531 -0.28125 C 15.519531 -0.320312 15.558594 -0.320312 15.558594 -0.320312 C 18.640625 -1.480469 20.757812 -3.917969 20.757812 -6.71875 L 20.757812 -22.398438 L 20.359375 -22.398438 L 20.359375 -6.71875 C 20.359375 -4.078125 18.359375 -1.800781 15.4375 -0.679688 C 15 -0.601562 14.597656 -0.519531 14.160156 -0.519531 C 10.917969 -0.519531 8.320312 -3.480469 8.320312 -7.121094 L 8.320312 -22.398438 L 2 -22.398438 L 2 -6.71875 C 2 -2.761719 6.199219 0.441406 11.359375 0.441406 Z M 11.359375 0.441406 "/></g></g></g><g fill="#ffffff" fill-opacity="1"><g transform="translate(219.590394, 212.086642)"><g><path d="M 11.679688 0.441406 L 21 -21.398438 L 21 0 L 27.039062 0 L 27.039062 -22.398438 L 21 -22.398438 L 15.078125 -8.28125 L 8.597656 -22.398438 L 2 -22.398438 L 2 0 L 2.398438 0 L 2.398438 -21.480469 Z M 11.679688 0.441406 "/></g></g></g><g fill="#ffffff" fill-opacity="1"><g transform="translate(248.627509, 212.086642)"><g><path d="M 0.601562 0 L 1.039062 0 L 4.078125 -6.71875 L 12.597656 -6.71875 L 15.640625 0 L 22.277344 0 L 10.839844 -22.71875 Z M 4.28125 -7.121094 L 8.359375 -16.078125 L 12.4375 -7.121094 Z M 4.28125 -7.121094 "/></g></g></g></svg>