<svg xmlns="http://www.w3.org/2000/svg" xmlns:xlink="http://www.w3.org/1999/xlink" width="500" zoomAndPan="magnify" viewBox="0 0 375 374.999991" height="500" preserveAspectRatio="xMidYMid meet" version="1.0"><path fill="#ffffff" d="M 49.386719 99.546875 C 52.347656 97.285156 54.589844 94.671875 58.320312 93.300781 C 61.421875 92.160156 64.953125 94.308594 66.703125 96.792969 C 68.621094 99.503906 68.816406 102.605469 67.871094 105.523438 C 83.1875 113.640625 105.371094 111.503906 122.148438 114.808594 C 131.855469 116.71875 136.777344 133.125 148.5625 137.902344 C 174.121094 148.265625 199.960938 158.796875 227.453125 162.691406 C 233.078125 163.492188 238.648438 163.933594 244.332031 163.953125 C 248.515625 163.972656 252.699219 163.742188 256.878906 163.757812 C 268.171875 163.792969 277.238281 166.476562 287.632812 170.765625 C 328.191406 183.917969 349.25 105.671875 266.453125 86.660156 C 261.960938 85.625 253.796875 82.433594 255.242188 76.371094 C 256.582031 70.757812 264.316406 70.980469 268.664062 71.957031 C 374.984375 95.757812 343.5625 206.515625 282.59375 185.003906 C 276.121094 182.71875 261.390625 179.128906 256.652344 186.589844 C 253.480469 191.578125 256.949219 198.890625 259.796875 203.175781 C 265.453125 211.679688 281.542969 211.578125 289.4375 221.160156 C 294.144531 226.882812 297.085938 233.054688 300.265625 239.652344 C 301.953125 243.15625 304.507812 248.71875 307.957031 250.785156 C 308.316406 251.003906 308.695312 251.1875 309.089844 251.34375 C 322.570312 256.546875 319.152344 278.492188 311.144531 276.035156 C 305.542969 274.324219 301.390625 270.191406 298.0625 265.539062 C 296.703125 263.640625 295.496094 261.664062 294.285156 259.671875 C 293.585938 258.53125 292.734375 257.015625 291.859375 256.019531 C 291.152344 255.21875 290.429688 254.4375 289.6875 253.667969 C 291.105469 256.359375 292.378906 259.097656 293.738281 262.128906 C 296.464844 268.175781 299.34375 272.46875 303.722656 277.5 C 305.015625 278.984375 306.066406 280.671875 306.902344 282.453125 C 308.617188 286.140625 309.535156 290.570312 309.386719 294.640625 C 309.261719 297.992188 308.277344 302.597656 304.558594 303.691406 C 303.394531 304.03125 302.191406 303.925781 301.078125 303.464844 C 295.632812 301.226562 292.078125 296.683594 289.425781 291.613281 C 288.359375 289.578125 287.460938 287.488281 286.542969 285.386719 C 286.050781 284.257812 285.382812 282.617188 284.664062 281.628906 C 279.894531 275.089844 272.128906 263.046875 265.515625 258.714844 C 252.117188 249.917969 236.539062 252.972656 223.304688 241.574219 C 213.585938 233.207031 210.398438 224.464844 204.960938 213.5 C 200.53125 204.5625 195.585938 200.078125 188.890625 199.789062 C 174.25 199.167969 160.058594 205.664062 145.078125 205.363281 L 144.492188 205.351562 L 143.949219 205.132812 C 130.460938 199.753906 116.976562 194.375 103.488281 188.992188 C 102.53125 192.210938 101.488281 194.707031 100.386719 195.859375 C 97.859375 198.519531 93.292969 198.84375 90.101562 197.285156 C 84.15625 194.390625 78.773438 190.574219 73.347656 186.835938 C 71.492188 187.0625 69.652344 187.367188 67.828125 187.777344 C 62.40625 189.003906 58.203125 191.660156 53.835938 194.980469 C 43.96875 202.484375 48.101562 204.101562 44.050781 213.6875 C 41.832031 218.933594 37.765625 223.945312 31.726562 224.566406 C 27.914062 224.957031 22.050781 222.765625 23.003906 217.933594 C 24.710938 209.210938 29.367188 199.328125 34.78125 192.285156 C 39.6875 185.914062 47.480469 180.585938 54.851562 176.519531 C 50.695312 175.246094 46.554688 175.054688 42.058594 175.164062 C 29.664062 175.457031 32.0625 179.1875 23.152344 184.582031 C 18.292969 187.523438 12.023438 189.191406 6.785156 186.171875 C 3.464844 184.253906 0.0078125 179.039062 3.609375 175.683594 C 6.964844 172.558594 10.128906 171.300781 14.214844 169.542969 C 16.964844 168.363281 19.085938 167.199219 21.09375 164.90625 C 25.839844 159.480469 36.546875 159.339844 43.089844 159.773438 C 50.414062 160.257812 58.269531 161.566406 65.9375 163.117188 C 65.101562 162.203125 64.320312 161.210938 63.636719 160.101562 C 60.753906 155.433594 60.769531 150.46875 59.363281 145.421875 C 59.035156 144.46875 58.109375 141.941406 57.316406 140.757812 C 49.445312 144.617188 43.609375 141.621094 37.566406 136.46875 C 32.785156 137.933594 32.429688 138.117188 26.363281 136.34375 L 22.734375 135.285156 L 23.390625 133.90625 C 20.730469 132.621094 18.980469 130.003906 19.214844 126.664062 C 18.375 124.535156 18.480469 122.542969 19.4375 120.28125 L 19.707031 119.652344 L 20.207031 119.1875 C 22.15625 117.367188 24.824219 115.621094 26.382812 113.492188 C 27.082031 112.535156 26.753906 109.710938 28.660156 107.5625 C 35.734375 99.574219 40.304688 100.660156 49.386719 99.546875 " fill-opacity="1" fill-rule="evenodd"/><path fill="#052c4a" d="M 66.375 158.414062 C 63.832031 154.304688 63.746094 149.117188 62.4375 144.46875 C 60.777344 139.582031 58.898438 136.25 56.671875 137.46875 C 49.101562 141.605469 44.050781 137.992188 38.339844 132.875 C 32.289062 134.667969 33.300781 135.019531 27.265625 133.253906 C 27.542969 132.675781 27.816406 132.09375 28.097656 131.519531 C 24.683594 131.878906 21.820312 129.808594 22.519531 126.15625 C 21.917969 125 21.46875 123.730469 22.402344 121.535156 C 24.59375 119.488281 27.210938 117.8125 28.980469 115.390625 C 30.175781 113.757812 29.722656 111.210938 31.066406 109.695312 C 37.609375 102.304688 42.074219 103.773438 50.625 102.632812 C 53.566406 100.523438 56.042969 97.5625 59.4375 96.3125 C 61.78125 95.457031 68.03125 99.886719 63.730469 106.828125 C 79.957031 117.171875 102.394531 114.191406 121.527344 117.960938 C 129.761719 119.582031 134.085938 135.5 147.351562 140.882812 C 173.027344 151.289062 199.097656 161.921875 227.003906 165.878906 C 255.304688 169.894531 258.359375 162.148438 286.519531 173.785156 C 331.25 188.460938 354.851562 103.660156 267.175781 83.523438 C 254.125 80.527344 256.441406 72.511719 267.960938 75.089844 C 369.726562 97.875 340.378906 201.984375 283.664062 181.976562 C 256.621094 172.433594 244.660156 186.226562 257.117188 204.957031 C 263.574219 214.660156 279.546875 214.207031 286.949219 223.203125 C 297.253906 235.71875 298.863281 250.839844 307.929688 254.34375 C 318.226562 258.320312 314.90625 273.828125 312.089844 272.964844 C 302.183594 269.929688 297.523438 257.578125 294.265625 253.890625 C 288.761719 247.648438 282.34375 242.652344 276.167969 237.058594 C 251.507812 227.632812 252.226562 210.074219 249.78125 194.214844 C 249.367188 238.832031 269.65625 229.054688 282.835938 248.5 C 291.925781 261.917969 289.535156 266.09375 301.296875 279.609375 C 308.117188 287.453125 307.164062 302.496094 302.304688 300.492188 C 292.722656 296.554688 290.167969 283.707031 287.265625 279.730469 C 282.355469 273.007812 274.246094 260.59375 267.289062 256.027344 C 253.3125 246.855469 238.066406 250.042969 225.402344 239.140625 C 200.433594 217.636719 217.5 187.316406 148.300781 180.769531 C 183.007812 187.675781 192.023438 196.742188 189.066406 196.582031 C 174.136719 195.761719 160.097656 202.445312 145.144531 202.148438 C 131.035156 196.515625 116.929688 190.894531 102.816406 185.261719 C 104.679688 177.535156 105.558594 168.375 105.535156 155.769531 C 105.40625 161.273438 101.839844 189.667969 98.054688 193.644531 C 96.542969 195.230469 93.480469 195.351562 91.507812 194.398438 C 85.382812 191.410156 79.820312 187.378906 74.179688 183.507812 C 71.808594 183.753906 69.453125 184.117188 67.121094 184.644531 C 61.21875 185.976562 56.695312 188.765625 51.886719 192.421875 C 41 200.695312 44.648438 203.992188 41.082031 212.4375 C 35.734375 225.09375 25.570312 221.5625 26.15625 218.554688 C 27.761719 210.378906 32.253906 200.851562 37.335938 194.246094 C 42.375 187.699219 51.277344 181.871094 59.980469 177.445312 C 63.964844 178.523438 67.847656 179.945312 71.628906 181.628906 C 67.5 179.203125 63.285156 176.453125 58.882812 174.570312 C 53.328125 172.195312 48.027344 171.800781 41.980469 171.945312 C 28.304688 172.273438 29.332031 177.082031 21.488281 181.832031 C 9.722656 188.949219 3.5625 180.125 5.804688 178.039062 C 11.902344 172.355469 18.027344 173.296875 23.515625 167.027344 C 25.851562 164.34375 31.738281 162.242188 42.875 162.980469 C 54.050781 163.722656 70.484375 167.324219 77.566406 168.941406 C 82.886719 170.335938 82.742188 158.273438 78.375 135.878906 C 80.667969 152.460938 82.566406 168.277344 76.113281 167.652344 C 72.664062 164.734375 68.726562 162.21875 66.375 158.414062 Z M 31.660156 114.148438 C 34.773438 116.414062 34.492188 115.164062 37.855469 112.542969 C 35.84375 112.847656 33.851562 113.023438 31.660156 114.148438 " fill-opacity="1" fill-rule="evenodd"/><path fill="#ffffff" d="M 23.105469 121.804688 C 25.296875 120.105469 27.40625 118.316406 29.4375 116.433594 C 29.886719 118.613281 24.824219 121.601562 23.105469 121.804688 Z M 141.988281 141.285156 C 165.132812 150.628906 187.984375 159.523438 212.285156 165.636719 C 225.078125 168.851562 237.867188 169.023438 249.308594 169.476562 C 258.933594 169.859375 271.328125 169.28125 278.066406 173.59375 C 270.878906 171.066406 259.9375 171.886719 249.253906 171.613281 C 237.699219 171.320312 224.757812 171.101562 211.761719 167.710938 C 191.1875 162.335938 160.222656 152.453125 141.988281 141.285156 Z M 65.648438 109.761719 C 75.640625 115.457031 87.8125 116.230469 99.132812 116.945312 C 102.816406 117.179688 114.820312 117.953125 120.71875 122.261719 C 114.652344 120.074219 107.039062 119.589844 99.003906 119.082031 C 94.652344 118.808594 71.222656 117.28125 65.648438 109.761719 Z M 47.925781 103.953125 C 49.03125 103.878906 50.101562 103.8125 51.046875 103.714844 C 52.339844 102.859375 53.441406 101.921875 54.511719 101.007812 C 55.726562 99.976562 57.597656 97.484375 60.234375 97.675781 C 58.105469 98.652344 56.824219 100.445312 55.203125 101.820312 C 54.082031 102.777344 52.929688 103.757812 51.53125 104.683594 L 51.421875 104.753906 L 51.285156 104.765625 C 50.222656 104.878906 49.121094 104.945312 47.996094 105.019531 C 42.234375 105.402344 36.121094 106.828125 31.726562 110.949219 C 35.9375 105.226562 41.277344 104.390625 47.925781 103.953125 " fill-opacity="1" fill-rule="evenodd"/></svg>